<?xml version="1.0" encoding="utf-8"?>
<!-- Generator: Adobe Illustrator 16.0.0, SVG Export Plug-In . SVG Version: 6.00 Build 0)  -->
<!DOCTYPE svg PUBLIC "-//W3C//DTD SVG 1.1//EN" "http://www.w3.org/Graphics/SVG/1.1/DTD/svg11.dtd">
<svg version="1.1" id="Layer_1" xmlns="http://www.w3.org/2000/svg" xmlns:xlink="http://www.w3.org/1999/xlink" x="0px" y="0px"
	 width="2500px" height="2500px" viewBox="0 0 2500 2500" enable-background="new 0 0 2500 2500" xml:space="preserve">
<g>
	<path fill="#FFFFFF" d="M110.295,1261.621c0-257.411,91.022-493.577,242.625-678.033l124.017,108.427
		c-136.935,168.153-218.982,382.738-218.982,616.466c0,539.633,437.431,977.116,977.064,977.116
		c154.457,0,300.574-35.874,430.428-99.686l14.111,19.947c-149.359,79.349-319.757,124.315-500.685,124.315
		C588.711,2330.188,110.295,1851.745,110.295,1261.621L110.295,1261.621z M718.123,428.313
		c-8.716,13.112-20.661,27.094-35.031,37.171c-31.997,22.387-68.52,18.846-91.087-13.385
		c-21.426-30.621-17.003-67.378,14.072-89.153c15.058-10.545,31.335-16.329,50.906-18.456l-21.349-38.002
		c-19.078,6.316-37.962,13.93-54.654,25.642c-54.148,37.897-74.239,94.368-34.188,151.564
		c43.526,62.164,109.621,48.883,153.394,18.21c22.36-15.642,33.786-28.897,44.098-40.687L718.123,428.313L718.123,428.313z
		 M908.571,400.26c-6.731-9.935-11.881-20.544-16.472-31.387l-21.776-51.321c-17.847-42.061-54.681-44.227-89.842-29.312
		c-20.375,8.638-36.86,19.065-50.842,33.138l14.462,31.932c10.104-13.009,24.201-22.438,39.545-28.936
		c17.197-7.302,33.319-8.236,41.555,10.428c-7.848,1.923-15.532,4.46-22.982,7.587c-25.407,10.765-69.038,35.226-51.191,77.274
		c12.697,29.882,42.748,33.047,69.998,21.49c19.584-8.287,29.558-21.581,33.086-43.371l0.544-0.22
		c3.035,7.12,6.835,13.93,10.26,21.231L908.571,400.26z M794.009,397.342c-5.603-13.216,4.968-23.631,21.089-30.44
		c7.134-3.061,14.241-5.46,20.453-7.769c6.822,16.147,2.426,37.366-15.576,45.018C808.872,408.846,798.043,406.888,794.009,397.342z
		 M949.88,391.401l49.946-13.397l-55.757-208.191l-49.973,13.398L949.88,391.401L949.88,391.401z M1187.369,351.637
		c-3.723-11.427-5.72-23.035-7.172-34.733l-6.783-55.316c-5.564-45.355-40.362-57.599-78.286-52.943
		c-21.971,2.685-40.712,8.145-58.053,17.82l5.136,34.694c13.269-9.74,29.441-14.889,45.991-16.926
		c18.521-2.282,34.292,1.271,37.081,21.478c-8.076-0.318-16.164,0.002-24.189,0.96c-27.392,3.359-76.067,14.798-70.503,60.179
		c3.942,32.204,31.97,43.553,61.359,39.947c21.103-2.594,34.357-12.619,43.773-32.58l0.558-0.091
		c0.946,7.73,2.736,15.317,3.994,23.268L1187.369,351.637L1187.369,351.637z M1078.06,317.279
		c-1.751-14.254,11.284-21.361,28.663-23.488c7.704-0.973,15.175-1.297,21.789-1.815c2.128,17.405-7.95,36.574-27.365,38.948
		C1089.175,332.402,1079.331,327.552,1078.06,317.279z M1224.981,345.878l50.945,8.987l10.972-62.268
		c5.604-31.659,18.871-44.214,36.99-40.997c14.436,2.542,18.21,16.043,15.278,32.735l-14.007,79.22l50.997,8.975l10.946-62.268
		c5.603-31.672,18.871-44.214,36.964-40.998c14.435,2.529,18.209,16.044,15.278,32.697l-14.008,79.245l50.972,8.988l15.33-86.885
		c7.042-39.869,1.647-65.64-40.803-73.123c-20.946-3.684-41.971,1.349-57.326,19.065c-4.565-20.648-20.194-32.723-41.167-36.432
		c-23.202-4.125-45.187,1.621-59.129,21.063l-0.583-0.104l4.812-27.159l-46.419-8.184L1224.981,345.878L1224.981,345.878z
		 M1517.592,406.797l48.261,18.56l53.63-139.749l-48.26-18.573L1517.592,406.797L1517.592,406.797z M1641.868,227.386l-48.312-18.56
		l-13.58,35.42l48.287,18.534L1641.868,227.386z M1644.631,333.867l26.575,13.009l-26.705,54.732
		c-15.603,32.049-14.513,55.265,27.081,75.575c11.647,5.655,21.18,8.417,30.453,11.66l13.229-31.011
		c-5.071-1.453-10.467-2.841-15.097-5.098c-14.721-7.198-14.591-17.354-6.614-33.617l24.136-49.584l32.555,15.875l15.888-32.541
		l-32.554-15.875l21.659-44.421l-52.645-8.106l-14.72,30.207l-27.406-13.333L1644.631,333.867L1644.631,333.867z M1880.084,546.195
		l5.85-7.444c27.431-35.122,35.822-78.519-7.873-112.682c-36.704-28.637-80.854-26.73-111.307,12.218
		c-30.427,38.936-18.65,85.004,20.312,115.431c15.174,11.842,31.893,21.271,49.09,26.329l22.438-28.767
		c-15.697-2.704-30.48-9.25-43.034-19.053c-19.96-15.59-27.457-31.673-16.978-49.727L1880.084,546.195z M1816.169,459.052
		c11.53-12.879,27.211-18.469,41.944-6.952c16.264,12.711,13.93,28.768,3.346,42.347L1816.169,459.052L1816.169,459.052z
		 M1871.395,620.084l37.21,35.927l103.966-107.675l-37.21-35.913L1871.395,620.084L1871.395,620.084z M2055.89,503.499
		l-37.211-35.926l-26.315,27.275l37.158,35.913L2055.89,503.499z M2020.521,607.452l18.21,23.332l-48.001,37.509
		c-28.041,21.932-37.211,43.306-8.768,79.777c7.977,10.168,15.33,16.821,22.243,23.825l25.459-22.049
		c-3.903-3.566-8.132-7.146-11.322-11.244c-10.104-12.918-5.499-21.958,8.768-33.1l43.449-33.968l22.347,28.547l28.495-22.321
		l-22.27-28.533l38.936-30.414l-43.748-30.362l-26.496,20.699l-18.768-23.993L2020.521,607.452L2020.521,607.452z M2143.993,896.289
		l8.339-4.462c39.363-20.921,64.642-57.158,38.638-106.132c-21.894-41.102-63.021-57.287-106.65-34.11
		c-43.617,23.216-51.581,70.089-28.391,113.706c9.065,17.016,20.466,32.411,34.149,44.032l32.217-17.133
		c-13.256-8.864-24.111-20.872-31.595-34.954c-11.906-22.334-12.204-40.037,4.708-52.307L2143.993,896.289L2143.993,896.289z
		 M2121.011,790.676c15.758-7.081,32.398-5.836,41.114,10.648c9.753,18.274,1.063,31.983-14.163,40.09L2121.011,790.676
		L2121.011,790.676z M2105.991,953.849l15.953,49.168l60.114-19.507c30.596-9.922,47.924-4.085,54.513,16.174
		c4.331,13.385-1.673,25.59-28.417,34.292l-68.883,22.36l15.953,49.22l88.843-28.857c29.48-9.598,51.749-34.046,39.169-72.839
		c-7.276-22.424-22.697-39.182-46.38-42.358l-0.182-0.545l26.212-8.521l-14.539-44.836L2105.991,953.849L2105.991,953.849z
		 M2163.875,1161.442l6.277,51.348l112.656-13.813l4.487,36.51l35.938-4.422l-4.487-36.497l9.093-1.115
		c14.564-1.765,24.317,2.23,25.913,15.343c0.96,7.704,0.636,12.101-0.272,16.563l35.771-1.219
		c0.324-6.693,1.012-15.447-0.376-26.602c-5.045-41.049-22.995-59.985-67.209-54.576l-9.118,1.102l-3.826-31.075l-35.9,4.409
		l3.696,30.233L2163.875,1161.442L2163.875,1161.442z M2173.148,1355.756c-0.855,49.44,27.211,87.584,76.626,88.453
		c49.674,0.856,79.063-36.237,79.945-85.665c0.882-49.415-27.21-87.585-76.91-88.428
		C2203.395,1269.208,2174.005,1306.366,2173.148,1355.756z M2209.348,1356.417c0.428-23.878,20.414-33.268,42.554-32.879
		c22.399,0.39,42.074,10.519,41.62,34.37c-0.402,23.813-20.389,33.229-42.813,32.853
		C2228.595,1390.385,2208.906,1380.269,2209.348,1356.417L2209.348,1356.417z M2167.248,1473.547l-10.766,50.608l61.84,13.151
		c31.491,6.691,43.54,20.401,39.117,41.23c-2.918,13.773-14.24,21.349-41.775,15.473l-70.802-15.07l-10.765,50.595l91.346,19.441
		c30.35,6.434,61.865-3.579,70.322-43.5c4.915-23.073-0.053-45.265-19.001-59.869l0.104-0.583l27.003,5.759l9.806-46.108
		L2167.248,1473.547L2167.248,1473.547z M2243.64,1905.271l22.801-46.77l-76.431-37.249l0.233-0.558
		c21.335-4.332,33.864-17.678,42.956-36.276c18.131-37.171-6.783-74.576-39.844-90.71c-39.765-19.416-83.291-14.099-102.824,25.913
		c-10.414,21.426-7.496,46.212,4.592,59.479l-0.26,0.506l-24.02-11.725l-20.895,42.904L2243.64,1905.271z M2168.921,1741.217
		c17.808,8.729,28.378,26.354,19.584,44.422c-8.339,17.042-28.599,21.231-48.96,11.271c-19.688-9.559-28.067-29.675-20.493-45.174
		C2127.6,1734.188,2147.482,1730.764,2168.921,1741.217z M2035.514,1838.918c-12.71,9.662-23.709,21.322-37.028,40.375
		c-19.403,27.742-31.815,62.93,0.907,85.859c46.64,32.658,75.718-40.997,94.797-27.638c6.809,4.786,1.219,16.303-5.24,25.473
		c-7.393,10.596-19.637,22.022-31.257,27.185l27.081,23.941c14.94-9.896,27.002-23.54,37.21-38.144
		c17.146-24.513,25.058-60.335-3.165-80.114c-44.253-30.984-71.892,39.493-92.564,24.954c-8.482-5.928-3.956-15.408,2.152-24.072
		c10.713-15.317,25.174-26.925,36.303-33.864L2035.514,1838.918L2035.514,1838.918z"/>
	<path fill="#00ACEC" d="M498.934,1337.935c0-389.793,315.982-705.788,705.776-705.788c389.793,0,705.775,315.995,705.775,705.788
		c0,389.807-315.982,705.802-705.775,705.802C814.916,2043.736,498.934,1727.741,498.934,1337.935L498.934,1337.935z"/>
	<path d="M1190.443,1357.325v645.842c-112.267,0-217.802-28.806-309.615-79.452L1190.443,1357.325z M1194.749,1251.933l-479.7-423.1
		c-101.021,113.446-162.407,262.975-162.407,426.848c0,242.314,126.001,450.362,324.166,559.633L1194.749,1251.933
		L1194.749,1251.933z M1221.207,1229.521V597.698c-187.271-9.688-362.077,75.187-482.008,209.929L1221.207,1229.521
		L1221.207,1229.521z M1501.51,1846.661c-94.819,52.296-201.369,79.648-309.653,79.491V1554.18L1501.51,1846.661z M1805.91,1322.047
		l146.792,0.856c0-34.682-2.711-68.714-8.028-101.878L1805.91,1322.047L1805.91,1322.047z M1759.88,1315.588l-497.792-1.414
		l2.478-234.117l300.639-331.117c174.509,92.643,301.171,263.363,333.414,465.602L1759.88,1315.588z"/>
	<path d="M1820.813,1351.773c0,242.327-134.264,443.942-332.48,553.252l-298.291-293.272v-257.671L1820.813,1351.773
		L1820.813,1351.773z M1554.958,806.914c-89.699-47.625-182.614-74.576-291.288-74.576v405.682L1554.958,806.914z"/>
	<path fill="#00ACEC" d="M870.103,1822.316c25.642,18.171,19.286-57.455,70.854-64.667c91.865-12.762,143.096-53.357,168.737-40.556
		c96.689,48.338-64.071,47.015,168.724,79.012c46.756,6.445,55.705,5.46,96.132,25.641c42.709,21.374,49.467,71.658,84.355,55.666
		c203.819-93.537,345.371-299.445,345.371-538.388c0-219.591-119.542-411.284-297.111-513.485
		c-86.832-49.999-33.968,32.735-45.018,62.799c-14.967,40.583-53.229,128.375-111.1,162.343
		c-98.245,57.664-140.968,111.086-117.479,126.027c38.196,24.279,115.457,28.287,140.994,46.977
		c119.62,87.61,198.243,50.413,211.446,79.024c12.84,27.795-0.156,75.394-2.102,85.458
		c-12.567,64.979-46.302,167.583-111.813,251.562c-80.425,103.019-146.675,152.148-212.859,132.94
		c-19.999-5.85,37.185-162.498,2.127-202.925c-138.842-160.229-21.037-251.601-34.162-232.859c-8.586,12.256,9.183-87.183,0-72.604
		c-27.6,43.747-119.607-25.654-162.343-21.349c-33.475,3.347-44.862,49.116-83.305,27.742
		c-50.258-27.897-56.314-106.715-72.618-111.06c-32.035-8.548,19.507-81.438-29.921-117.48
		c-102.513-74.758-50.4-156.454-83.305-123.888c-108.401,107.313-175.559,256.205-175.559,420.791
		C620.149,1538.539,718.85,1715.005,870.103,1822.316L870.103,1822.316z"/>
</g>
</svg>
