<?xml version="1.0" encoding="utf-8"?>
<!-- Generator: Adobe Illustrator 16.0.0, SVG Export Plug-In . SVG Version: 6.00 Build 0)  -->
<!DOCTYPE svg PUBLIC "-//W3C//DTD SVG 1.1//EN" "http://www.w3.org/Graphics/SVG/1.1/DTD/svg11.dtd">
<svg version="1.1" id="Layer_1" xmlns="http://www.w3.org/2000/svg" xmlns:xlink="http://www.w3.org/1999/xlink" x="0px" y="0px"
	 width="2500px" height="2500px" viewBox="0 0 2500 2500" enable-background="new 0 0 2500 2500" xml:space="preserve">
<g>
	<path fill="#AD3446" d="M1212.427,859.234v66.028H636.504c13.074-66.106,31.192-132.058,56.873-194.403
		C849.26,815.201,1029.034,842.685,1212.427,859.234L1212.427,859.234z M1793.783,745.515
		c24.327,57.762,42.179,118.041,53.229,179.735h-564.95v-66.029C1460.007,853.709,1634.217,811.544,1793.783,745.515
		L1793.783,745.515z M1212.427,789.547c-174.236-9.182-339.328-44.032-484.213-124.717
		c69.712-155.909,199.63-325.619,377.472-382.569c32.969-10.505,65.873-12.477,106.741-13.618V789.547z M1678.287,525.405
		c7.315,16.536,23.813,38.559,36.653,56.859c14.643,31.192,38.48,62.371,47.702,97.247
		c-146.766,69.661-308.136,99.024-480.595,110.035l0.052-520.904C1450.837,268.643,1582.921,395.215,1678.287,525.405
		L1678.287,525.405z M926.287,296.151C805.241,387.86,732.986,514.978,658.501,635.479
		c-69.687-45.861-143.018-95.393-194.365-163.225C607.18,386.032,763.089,334.698,926.287,296.151L926.287,296.151z
		 M2039.573,475.887c-60.568,64.2-133.899,135.729-214.559,166.908c-62.372-126.547-148.595-260.434-269.629-346.643
		C1729.583,327.37,1889.15,387.861,2039.573,475.887z M636.504,701.496c-33.008,71.515-56.924,137.881-74.407,223.754H36.795
		c75.172-161.396,207.244-320.963,364.969-414.501C473.279,580.436,552.148,651.978,636.504,701.496L636.504,701.496z
		 M2463.244,925.25h-546.56c-14.694-75.212-40.375-143.057-62.346-216.439c89.854-43.993,174.185-113.706,247.593-188.904
		C2257.828,606.116,2393.557,769.354,2463.244,925.25z"/>
	<path fill="#4580B9" d="M464.188,1317.339H347.59l103.446-174.404h1.427L464.188,1317.339z M473.656,1426.298l10.232,95.172
		h149.464l-60.219-547.843H420.091L69.726,1521.471h148.789l62.034-95.173H473.656L473.656,1426.298z M819.896,973.627h140.217
		l169.397,334.957h1.427l87.416-334.957h140.125l-142.9,547.844h-140.177l-169.204-335.632h-1.427l-87.571,335.631h-140.19
		L819.896,973.627z M1589.276,1306.405l217.671-332.778h152.369l-373.205,547.844h-108.699l-83.798-547.844h152.317
		L1589.276,1306.405L1589.276,1306.405z M2106.147,1082.639h13.604c45.797,0,94.939,8.729,79.414,68.272
		c-15.524,59.557-69.284,68.324-115.055,68.324h-13.579L2106.147,1082.639z M2188.998,1296.977
		c80.127-13.826,138.659-79.206,158.426-154.756c30.479-117.013-36.912-168.594-143.498-168.594h-209.514l-142.939,547.844h140.216
		l54.966-210.707h1.44l77.364,210.707h174.508L2188.998,1296.977z M1212.336,1710.518c-174.21,9.144-339.237,44.006-484.148,124.678
		c69.713,155.897,199.631,325.633,377.498,382.557c32.969,10.531,65.873,12.49,106.65,13.605V1710.518z M1678.171,1974.621
		c7.393-16.537,23.942-38.586,36.73-56.925c14.694-31.127,38.533-62.294,47.65-97.169c-146.675-69.738-308.083-99.076-480.49-110.01
		v520.84C1450.837,2231.357,1582.869,2104.824,1678.171,1974.621L1678.171,1974.621z M926.287,2203.874
		c-121.072-91.722-193.353-218.839-267.786-339.341c-69.687,45.849-143.057,95.393-194.404,163.186
		C607.153,2113.968,763.05,2165.341,926.287,2203.874z M2039.547,2024.088c-60.542-64.162-133.873-135.729-214.584-166.908
		c-62.411,126.61-148.569,260.459-269.577,346.682C1729.583,2172.695,1889.15,2112.152,2039.547,2024.088L2039.547,2024.088z
		 M636.479,1798.491c-32.982-71.489-56.898-137.855-74.408-223.729l-525.314,0.026c75.199,161.356,207.244,320.924,364.982,414.448
		C473.279,1919.577,552.123,1848.062,636.479,1798.491z M2463.191,1574.763h-546.507c-14.694,75.186-40.375,143.069-62.397,216.439
		c89.881,44.007,174.236,113.72,247.566,188.866C2257.776,1893.884,2393.479,1730.659,2463.191,1574.763z M1212.336,1640.779
		v-66.017H636.479c13.073,66.094,31.166,132.007,56.872,194.392C849.247,1684.799,1028.969,1657.289,1212.336,1640.779z
		 M1793.783,1754.511c23.864-56.898,42.178-117.39,53.15-179.748h-564.872v66.017
		C1459.954,1646.304,1634.217,1688.456,1793.783,1754.511z"/>
</g>
</svg>
