<?xml version="1.0" encoding="utf-8"?>
<!-- Generator: Adobe Illustrator 16.0.0, SVG Export Plug-In . SVG Version: 6.00 Build 0)  -->
<!DOCTYPE svg PUBLIC "-//W3C//DTD SVG 1.1//EN" "http://www.w3.org/Graphics/SVG/1.1/DTD/svg11.dtd">
<svg version="1.1" id="Layer_1" xmlns="http://www.w3.org/2000/svg" xmlns:xlink="http://www.w3.org/1999/xlink" x="0px" y="0px"
	 width="2500px" height="2500px" viewBox="0 0 2500 2500" enable-background="new 0 0 2500 2500" xml:space="preserve">
<g>
	<path fill="#CE364F" d="M942.837,277.851c0,0,677.995-245.894,1186.993,287.682l-127.778,86.431
		c0,0-170.838-230.576-644.688-289.835c0,0,298.759,124.613,414.709,426.731l-135.651,71.229c0,0-177.192-424.189-571.616-437.756
		l184.871,599.308c0,0-62.034,23.747-148.764,46.729L917.676,474.447c0,0-291.016,154.677-231.29,678.098l-147.531,15.447
		c0,0-74.835-324.581,107.844-588.049c0,0-329.146,246.244-381.855,608.062l-154.548,3.177
		C110.295,1191.182,162.991,534.276,942.837,277.851L942.837,277.851z"/>
	<g>
		<path fill="#2360A5" d="M2193.434,689.745l-140.813,93.758c0,0,24.37,427.898-304.465,705.075c0,0,137.012-258.721,65.938-562.939
			l-135.171,70.854c0,0,67.066,491.865-235.868,652.067l-48.714-157.868c231.743-115.055,190.474-418.949,190.474-418.949
			l-123.822,52.71c-10.531,158.088-114.367,211.563-114.367,211.563l-54.668-177.245c-67.43,21.673-149.45,44.538-149.45,44.538
			l54.706,177.232c-134.38,15.836-215.713-111.178-215.713-111.178l-138.336,27.639c0,0,133.057,273.584,402.192,239.643
			l48.391,156.882c-361.649,27.639-567.79-407.432-567.79-407.432L574.418,1304.2c109.348,295.814,362.284,417.562,362.284,417.562
			c-424.188-51.957-640.745-397.886-640.745-397.886l-168.101,6.083c0,0,385.941,760.56,1290.258,492.5
			C2298.074,1561.624,2193.434,689.745,2193.434,689.745z"/>
		<path fill="#2360A5" d="M2240.852,2099.247c15.797-1.751,108.894-32.476,108.894-100.97c0-84.303-135.469-92.228-190.564-91.164
			h-373.335l-0.376,348.484h183.729l-0.584-129.996h96.586l106.703,129.996h217.801L2240.852,2099.247z M2055.072,2056.421h-85.419
			l0.337-81.139c0,0,32.489-0.506,83.513-0.506c40.452,0,85.017,6.718,85.471,38.43
			C2139.401,2044.618,2097.911,2055.409,2055.072,2056.421z"/>
	</g>
	<path fill="#CE364F" d="M911.217,794.242c13.178,2.62,91.761,21.646,71.126,123.81c-19.312,95.729-96.547,89.375-109.763,86.067
		c-14.06-3.515-89.673-26.03-72.916-120.295C818.12,780.184,896.185,791.221,911.217,794.242L911.217,794.242z"/>
	<path fill="#2360A5" d="M2316.271,289.148h5.499l3.566,0.247c2.478,0.143,4.306,0.479,5.525,0.973
		c2.23,0.843,3.723,4.487,4.539,6.653c0.506,1.31,0.83,3.839,0.986,7.549c0.155,3.761,0.479,6.602,0.985,8.56h15.421l-0.531-1.725
		c-0.197-0.595-0.332-1.207-0.402-1.829c-0.097-0.596-0.14-1.199-0.13-1.803v-5.525c0-6.29-1.803-10.92-5.447-13.838
		c-1.972-1.569-4.89-2.75-8.768-3.541c4.229-0.454,7.782-1.855,10.713-4.15c2.893-2.335,4.332-6.083,4.332-11.284
		c0-6.809-2.736-11.712-8.262-14.76c-3.216-1.764-7.276-2.814-12.165-3.178l-29.974-0.143v61.788h14.085v-23.994H2316.271
		L2316.271,289.148z"/>
	<path fill="#FFFFFF" d="M2333.52,277.877c-2.127,1.518-5.097,2.27-8.871,2.27h-8.378v-17.924h6.03c4.047,0,7.173,0.428,9.378,1.284
		c3.346,1.31,5.019,3.657,5.019,7.029C2336.685,273.935,2335.621,276.373,2333.52,277.877z"/>
	<path fill="#CE364F" d="M1266.887,675.452c-10.531,6.382-73.721,58.767-11.427,142.356c58.364,78.299,124.73,38.779,136.001,30.92
		c13.126-9.118,69.973-61.84,14.539-139.905C1345.056,622.977,1279.091,668.047,1266.887,675.452L1266.887,675.452z"/>
	<path fill="#2360A5" d="M577.284,1916.607c74.576,3.54,194.079,22.826,194.079,22.826l-65.873,59.726
		c0,0-233.339-38.935-234.467,5.266c-0.662,25.46,158.036,61.282,207.309,76.431c37.028,11.375,106.417,36.86,106.196,81.671
		c-0.285,56.263-111.515,120.269-345.151,115.898c-93.966-1.751-251.146-14.915-308.227-28.948l86.936-60.621
		c0,0,100.438,16.108,158.076,19.325c47.431,2.633,121.202-2.633,126.468-31.62c5.267-28.975-111.825-52.891-168.62-70.452
		c-59.713-18.443-141.189-31.037-142.265-91.671c-1.414-78.506,166.986-90.633,212.522-94.303
		C458.728,1915.726,521.942,1913.975,577.284,1916.607L577.284,1916.607z M1524.207,1925.375l22.853,73.784
		c0,0-136.986-19.325-196.726-17.573c-59.713,1.75-217.257,8.768-212.522,117.661c3.515,80.802,138.024,96.612,189.695,96.612
		c53.578,0,100.814-22.827,100.814-22.827l-24.591-86.431l168.581-0.35l53.772,169.346h-171.693l-4.487-13.424
		c0,0-80.257,25.707-176.869,25.707c-89.582,0-352.843-29.869-351.286-175.65c1.777-163.341,305.399-182.821,402.231-184.442
		C1429.151,1906.05,1524.207,1925.375,1524.207,1925.375L1524.207,1925.375z M2369.434,250.783
		c11.582,12.659,14.746,33.722,9.468,50.582c-6.329,16.861-22.14,32.658-39.013,36.887c-23.178,5.266-46.381-3.165-60.063-22.127
		c-10.531-14.76-12.646-34.772-6.329-51.646c7.393-20.012,28.442-33.734,47.443-35.822
		C2340.938,227.606,2357.838,234.973,2369.434,250.783z M2325.596,238.008c-12.84,0-23.761,4.656-32.775,13.929
		c-8.871,9.079-13.293,19.844-13.293,32.295c0,12.918,4.514,23.877,13.527,32.917c8.506,8.829,20.296,13.729,32.554,13.527
		c12.646,0,23.462-4.552,32.425-13.618c8.786-8.643,13.655-20.503,13.476-32.826c0-12.412-4.487-23.177-13.398-32.295
		C2349.07,242.651,2338.229,238.008,2325.596,238.008z"/>
</g>
</svg>
